<mxfile host="app.diagrams.net" modified="2023-06-28T00:38:38.144Z" agent="Mozilla/5.0 (Macintosh; Intel Mac OS X 10_15_7) AppleWebKit/537.36 (KHTML, like Gecko) Chrome/114.0.0.0 Safari/537.36" version="21.5.1" etag="2jUF8ks1NW5M2JNoZ5ss" type="github">
  <diagram name="PÃ¡gina-1" id="5hl5Fsf9Mp7Isxhz5oK4">
    <mxGraphModel>
      <root>
        <mxCell id="0" />
        <mxCell id="1" parent="0" />
      </root>
    </mxGraphModel>
  </diagram>
</mxfile>
